# xmcd
#
# Track frame offsets:
#	150
#	12533
#	27586
#	45451
#	66417
#	81614
#	96698
#	109243
#
# Disc length: 1661 seconds
#
# Revision: 1
# Processed by: cddbd v1.5.2PL0 Copyright (c) Steve Scherf et al.
# Submitted via: EZCDAudioConverter 7.1.8.1
#
DISCID=76067b08
DTITLE=RÃ PRETA - FUNK 40º -DO RIO,PARAO O BRASIL ( CD 7102) CENTRAL FUNK DISC
DTITLE=OS1996
DYEAR=1998
DGENRE=funk
TTITLE0=MONTAGEM-MASSACRE
TTITLE1=MONTAGEM-PORRADA BEAT 
TTITLE2=MONTAGEM-DANÇA DO SACI TARADO
TTITLE3=MONTAGEM-SOLITARIO II
TTITLE4=MONTAGEM-DESTINO II
TTITLE5=MONTAGEM-SAPATINHO II
TTITLE6=MONTAGEM-DO PODER
TTITLE7=MONTAGEM-DO ESCULACHO (BY DJ GILMAR SINISTRO)
EXTD=
EXTT0=
EXTT1=
EXTT2=
EXTT3=
EXTT4=
EXTT5=
EXTT6=
EXTT7=
PLAYORDER=
